 <!DOCTYPE svg PUBLIC "-//W3C//DTD SVG 1.1//EN" "http://www.w3.org/Graphics/SVG/1.1/DTD/svg11.dtd">
<svg xmlns="http://www.w3.org/2000/svg" width="865.76" height="682.89" viewBox="0 0 865.76 682.89">
<defs>
<style xmlns="http://www.w3.org/1999/xhtml">*, ::after, ::before { box-sizing: border-box; }
img, svg { vertical-align: middle; }
</style>
<style xmlns="http://www.w3.org/1999/xhtml">*, body, html { -webkit-font-smoothing: antialiased; }
img, svg { max-width: 100%; }
</style>
</defs>
<path d="M738.55,483.63l-21.06.45-10.69.18c-3.58.08-7.18,0-10.76.1h-.7v-.73l-.08-18v-.8h.8l21.25.09c7.08,0,14.18.2,21.26.28H739v.43c0,3.05-.13,6.08-.21,9.07Zm0,0-.22-9.07c-.08-3-.18-5.95-.21-8.89l.43.43c-7.08.08-14.17.26-21.25.28l-21.26.09.81-.8-.08,18-.73-.72c3.5,0,7,0,10.52.1l10.56.17Z" fill="#ebebeb"/>
<path d="M714.78,506.28l-21.08.45-10.69.18c-3.57.08-7.16,0-10.74.08h-.71v-.72l-.08-18v-.8h.8l21.26.1c7.08,0,14.17.19,21.25.27h.44v.43c0,3.05-.13,6.09-.21,9.07Zm0,0-.23-9.07c0-3-.17-5.95-.21-8.89l.44.43c-7.08.08-14.18.26-21.26.28l-21.25.09.8-.8,0,18-.71-.72c3.5,0,7,0,10.5.1l10.56.17Z" fill="#ebebeb"/>
<path d="M762.26,506.28l-21.06.45-10.69.18c-3.58.08-7.18,0-10.76.08h-.7v-.72l-.1-18v-.8h.8l21.26.1c7.09,0,14.17.19,21.25.27h.45v.43c0,3.05-.14,6.09-.22,9.07Zm0,0-.22-9.07c0-3-.18-5.95-.21-8.89l.43.43c-7.08.08-14.16.26-21.25.28l-21.26.09.81-.8-.08,18-.73-.72c3.5,0,7,0,10.52.1l10.56.17Z" fill="#ebebeb"/>
<path d="M157.74,483.63l-21.08.45-10.69.18c-3.56.08-7.16,0-10.74.1h-.72V464.87h.82l21.25.09c7.08,0,14.16.2,21.26.28h.43v.43c0,3.05-.14,6.08-.21,9.07Zm0,0-.22-9.07c0-3-.2-5.95-.23-8.89l.45.43c-7.09.08-14.17.26-21.25.28l-21.26.09.81-.8-.1,18-.71-.72c3.5,0,7,0,10.5.1l10.57.17Z" fill="#ebebeb"/>
<path d="M181.42,506.28l-21.08.45-10.62.18c-3.57.08-7.16,0-10.74.08h-.73V487.5h.81l21.25.1c7.08,0,14.18.19,21.25.27h.26v.43c0,3.05-.13,6.09-.21,9.07Zm0,0-.22-9.07c0-3-.2-5.95-.21-8.89l.43.43c-7.08.08-14.17.26-21.25.28l-21.26.09.8-.8-.09,18-.71-.72c3.5,0,7,0,10.5.1l10.56.17Z" fill="#ebebeb"/>
<path d="M295.33,328.58l-21.06.45-10.69.17c-3.58.08-7.18,0-10.76.08h-.7v-.72l-.08-18v-.82h.8l21.25.1c7.08,0,14.18.17,21.26.27h.45v.43c0,3.05-.13,6.09-.21,9.07Zm0,0-.22-9.09c0-3-.18-5.94-.21-8.87l.43.43c-7.08.08-14.17.26-21.25.27l-21.26.1.81-.8v18l-.73-.72c3.5,0,7,0,10.52.09l10.56.18Z" fill="#ebebeb"/>
<path d="M271.62,351.23l-21.08.45-10.69.18H228.37v-19.4h.81l21.25.1c7.08,0,14.18.18,21.26.27h.44v.44c0,3.05-.12,6.08-.2,9.07Zm0,0-.22-9.09c-.08-3-.18-5.94-.21-8.87l.43.43c-7.08,0-14.17.26-21.25.27l-21.26.1.81-.8-.1,18-.71-.72c3.5,0,7,0,10.5.09l10.56.18Z" fill="#ebebeb"/>
<path d="M319,351.23l-21.06.45-10.69.18H275.83v-.73l-.1-18v-.8h.8l21.26.09c7.09,0,14.17.18,21.25.28h.45v.43c0,3.05-.14,6.08-.22,9.07Zm0,0-.22-9.09c0-3-.18-5.94-.21-8.87l.43.43c-7.08,0-14.16.26-21.25.27l-21.26.1.81-.8-.08,18-.73-.72c3.5,0,7,0,10.52.09l10.56.18Z" fill="#ebebeb"/>
<path d="M736.09,95.39,715,95.84l-10.69.2H692.88v-.73l-.08-18v-.8h.8l21.26.09c7.08,0,14.17.18,21.25.26h.45v.44c0,3-.13,6.06-.21,9.07Zm0,0-.22-9.07c-.08-3-.18-5.93-.21-8.89l.43.45c-7.07.08-14.17.26-21.25.26l-21.25.09.8-.8-.1,18-.7-.72c3.5,0,7,0,10.5.08l10.56.2Z" fill="#ebebeb"/>
<path d="M759.8,118.05l-21.06.44-10.69.2c-3.58,0-7.17,0-10.75.08h-.71v-.72l-.08-18v-.8h.8l21.26.1c7.08,0,14.17.17,21.25.25h.45v.44c0,3.05-.13,6.08-.21,9.08Zm0,0-.22-9.07c-.08-3-.18-5.94-.21-8.9l.43.45c-7.07.08-14.17.26-21.25.26l-21.25.09.8-.8-.11,18-.73-.71h10.52l10.56.19Z" fill="#ebebeb"/>
<path d="M157.58,95.43l-21.08.45-10.69.17H114.4V76.56h.8l21.26.1c7.08,0,14.15.18,21.25.26h.43v.43c0,3.05-.14,6.07-.21,9.07Zm0,0-.22-9.09c-.08-3-.2-5.94-.23-8.88l.45.44c-7.09.08-14.17.25-21.25.25l-21.26.12.81-.81-.1,18-.71-.76c3.5,0,7,0,10.5.1l10.57.18Z" fill="#ebebeb"/>
<rect x="226.95" y="120.73" width="87.95" height="106.69" fill="#ebebeb"/>
<rect x="237" y="130.45" width="67.86" height="87.22" fill="#fff"/>
<rect x="237" y="130.45" width="2.65" height="87.22" fill="#dbdbdb"/>
<rect x="314.88" y="120.73" width="2.65" height="106.69" fill="#dbdbdb"/>
<rect x="259.73" y="142.48" width="16" height="47.66" fill="#dbdbdb"/>
<path d="M296.21,199.1H251.94v-25h44.27Zm-42.66-1.61h41.06V175.74H253.55Z" fill="#ebebeb"/>
<rect x="122.36" y="233.43" width="87.95" height="106.69" fill="#ebebeb"/>
<rect x="132.41" y="243.18" width="67.86" height="87.22" fill="#fff"/>
<rect x="132.41" y="243.18" width="2.65" height="87.22" fill="#dbdbdb"/>
<rect x="210.32" y="233.43" width="2.65" height="106.69" fill="#dbdbdb"/>
<rect x="159.76" y="265.72" width="13.71" height="34.66" fill="#ebebeb"/>
<path d="M188.71,311.48H150.29V286h38.42Zm-36.81-1.6h35.2v-22.3H151.9Z" fill="#dbdbdb"/>
<rect x="602.49" y="456.18" width="125.89" height="174.22" fill="#ebebeb"/>
<rect x="596.39" y="449.73" width="138.09" height="6.47" fill="#dbdbdb"/>
<rect x="734.47" y="449.73" width="43.42" height="6.47" fill="#ebebeb"/>
<rect x="728.37" y="456.18" width="42.65" height="174.22" fill="#dbdbdb"/>
<path d="M714.86,536.86H616V481h98.87Zm-98.47-.4h98.07V481.35H616.39Z" fill="#c7c7c7"/>
<rect x="651.64" y="497.31" width="19.23" height="11.06" fill="#c7c7c7"/>
<path d="M676.75,507.73H657.11v-9.79h19.64Zm-19.27-.4h18.83v-9H657.52Z" fill="#c7c7c7"/>
<path d="M714.86,607H616V551.09h98.87Zm-98.47-.4h98.07V551.49H616.39Z" fill="#c7c7c7"/>
<rect x="651.64" y="567.44" width="19.23" height="11.06" fill="#c7c7c7"/>
<path d="M676.75,577.86H657.11v-9.77h19.64Zm-19.27-.4h18.83v-9H657.52Z" fill="#c7c7c7"/>
<rect x="731.66" y="-0.04" width="1.61" height="151.7" fill="#c7c7c7"/>
<polygon points="687.05 195.44 690.7 203.48 774.25 203.48 777.9 195.44 742.32 170.83 722.63 170.83 687.05 195.44" fill="#ebebeb"/>
<polygon points="720.15 147.1 722.63 170.83 742.32 170.83 744.79 147.1 720.15 147.1" fill="#dbdbdb"/>
<polygon points="687.05 195.45 690.71 203.48 774.25 203.48 777.9 195.45 687.05 195.45" fill="#dbdbdb"/>
<rect x="640.1" y="-0.04" width="1.61" height="104.89" fill="#c7c7c7"/>
<polygon points="595.47 148.64 599.13 156.67 682.67 156.67 686.32 148.64 650.76 124.02 631.04 124.02 595.47 148.64" fill="#ebebeb"/>
<polygon points="628.57 100.31 631.04 124.02 650.76 124.02 653.21 100.31 628.57 100.31" fill="#dbdbdb"/>
<polygon points="595.49 148.64 599.13 156.68 682.69 156.68 686.32 148.64 595.49 148.64" fill="#dbdbdb"/>
<path d="M470.62,70.1H221.53a25.44,25.44,0,0,0-25.2,25.66V623.28A25.46,25.46,0,0,0,221.53,649H470.62a25.47,25.47,0,0,0,25.23-25.68V95.78A25.46,25.46,0,0,0,470.62,70.1Zm9.47,537.33c0,13.5-10.11,24.41-22.58,24.41H234.68c-12.5,0-22.61-10.91-22.61-24.41V115.22c0-27.51,10.11-28.85,22.61-28.85h44.64c2.58,0,4.71,3,4.71,6.61v1.54c0,8.56,4.62,8.59,10.43,8.59H397.69c5.8,0,10.47,0,10.47-8.59V93c0-3.65,2.09-6.61,4.72-6.61h44.64c12.47,0,22.59,3.67,22.59,28.85Z" fill="#3f4347"/>
<path d="M480.09,115.22V607.43c0,13.5-10.11,24.41-22.58,24.41H234.68c-12.5,0-22.61-10.91-22.61-24.41V115.22c0-27.51,10.11-28.85,22.61-28.85h44.64c2.58,0,4.71,3,4.71,6.61v1.54c0,8.56,4.62,8.59,10.43,8.59H397.69c5.8,0,10.47,0,10.47-8.59V93c0-3.65,2.09-6.61,4.72-6.61h44.64C470,86.37,480.09,90,480.09,115.22Z" fill="#fff"/>
<path d="M480.09,115.2V607.43c0,13.5-10.11,24.41-22.58,24.41H234.68c-12.5,0-22.61-10.91-22.61-24.41V115.2c0-27.49,10.11-28.83,22.61-28.83h44.64c2.58,0,4.71,3,4.71,6.61v1.54c0,8.57,4.62,8.6,10.43,8.6H397.69c5.8,0,10.47,0,10.47-8.6V93c0-3.65,2.09-6.61,4.72-6.61h44.64C470,86.37,480.09,90,480.09,115.2Z" fill="#fff"/>
<path d="M480.09,115.22v42.5h-268v-42.5c0-27.51,10.11-28.85,22.61-28.85h44.64c2.58,0,4.71,3,4.71,6.61v1.54c0,8.56,4.62,8.59,10.43,8.59H397.69c5.8,0,10.47,0,10.47-8.59V93c0-3.65,2.09-6.61,4.72-6.61h44.64C470,86.37,480.09,90,480.09,115.22Z" fill="#4a148c" data-primary="true"/>
<path d="M271.61,97.1c-.14.14-.3.28-.43.43l-.25.25a5.87,5.87,0,0,0-8.3,0v0l-.23-.25a5.88,5.88,0,0,1-.44-.43h0l.56-.49a5.72,5.72,0,0,1,1.26-.8,6.28,6.28,0,0,1,1.66-.57l.85-.11h1.29a6.66,6.66,0,0,1,1.54.37,6.09,6.09,0,0,1,1,.49,6.4,6.4,0,0,1,1,.7l.45.4Z" fill="#fff"/>
<path d="M264,99.13l-.68-.67a4.76,4.76,0,0,1,2.77-1.4,4.85,4.85,0,0,1,4.17,1.38l-.69.68a4,4,0,0,0-5.57,0Z" fill="#fff"/>
<path d="M268.88,99.81l-.68.68a1.92,1.92,0,0,0-1.43-.59,2,2,0,0,0-1.43.59l-.68-.68a3,3,0,0,1,4.21,0Z" fill="#fff"/>
<path d="M267.39,101.1a.62.62,0,0,1-.62.62.61.61,0,0,1-.61-.62.61.61,0,0,1,.61-.61h0A.61.61,0,0,1,267.39,101.1Z" fill="#fff"/>
<path d="M229.55,98.41a1.79,1.79,0,1,1,1.8,1.77h0A1.79,1.79,0,0,1,229.55,98.41Z" fill="#fff"/>
<path d="M235.14,98.41a1.79,1.79,0,1,1,1.8,1.77h0A1.79,1.79,0,0,1,235.14,98.41Z" fill="#fff"/>
<path d="M240.74,98.41a1.79,1.79,0,0,1,1.77-1.8,1.79,1.79,0,0,1,0,3.57h0A1.77,1.77,0,0,1,240.74,98.41Z" fill="#fff"/>
<path d="M246.33,98.41a1.79,1.79,0,1,1,1.8,1.77h0A1.79,1.79,0,0,1,246.33,98.41Z" fill="#fff"/>
<path d="M251.93,98.41a1.8,1.8,0,0,1,1.77-1.8,1.79,1.79,0,1,1-1.77,1.83Z" fill="#fff"/>
<path d="M460,102.27H445.53V95.58H460Zm-13.71-.72h13V96.32h-13Z" fill="#fff"/>
<rect x="446.73" y="96.72" width="9.33" height="4.42" fill="#fff"/>
<rect x="460" y="97.15" width="1.29" height="3.59" fill="#fff"/>
<polygon points="236.51 141.99 228.58 134.57 236.51 127.15 237.73 128.46 231.22 134.57 237.73 140.68 236.51 141.99" fill="#fff"/>
<polygon points="455.68 127.15 463.6 134.57 455.68 141.99 454.46 140.68 460.97 134.57 454.46 128.46 455.68 127.15" fill="#fff"/>
<path d="M360.16,92.45H332a1.75,1.75,0,0,1-1.74-1.74h0A1.75,1.75,0,0,1,332,89h28.15a1.73,1.73,0,0,1,1.74,1.73h0a1.73,1.73,0,0,1-1.74,1.74Z" fill="#fff"/>
<rect x="230.26" y="178.92" width="231.67" height="58.23" fill="#ebebeb"/>
<path d="M264.09,228.39A20.37,20.37,0,1,1,284.52,208a20.37,20.37,0,0,1-20.43,20.36Zm0-37.88a17.53,17.53,0,1,0,17.52,17.55v0A17.55,17.55,0,0,0,264.09,190.51Z" fill="#dbdbdb"/>
<rect x="262.52" y="195.63" width="3.14" height="24.77" transform="translate(-69.74 247.67) rotate(-45)" fill="#dbdbdb"/>
<rect x="251.71" y="206.46" width="24.77" height="3.14" transform="translate(-69.74 247.67) rotate(-45)" fill="#dbdbdb"/>
<rect x="299.42" y="192.51" width="149.02" height="2.82" fill="#dbdbdb"/>
<rect x="299.42" y="203.76" width="149.02" height="2.82" fill="#dbdbdb"/>
<rect x="299.42" y="209.41" width="121.65" height="2.82" fill="#dbdbdb"/>
<rect x="299.42" y="215.08" width="80.74" height="2.82" fill="#dbdbdb"/>
<rect x="299.42" y="220.74" width="121.65" height="2.82" fill="#dbdbdb"/>
<rect x="230.26" y="328.28" width="231.67" height="58.23" fill="#ebebeb"/>
<path d="M264.09,377.73a20.41,20.41,0,1,1,.05,0Zm0-37.88a17.54,17.54,0,1,0,17.52,17.55v0A17.55,17.55,0,0,0,264.09,339.85Z" fill="#dbdbdb"/>
<rect x="262.52" y="344.99" width="3.14" height="24.77" transform="translate(-175.35 291.41) rotate(-45)" fill="#dbdbdb"/>
<rect x="251.71" y="355.81" width="24.77" height="3.14" transform="translate(-175.36 291.42) rotate(-45)" fill="#dbdbdb"/>
<rect x="299.42" y="341.85" width="149.02" height="2.82" fill="#dbdbdb"/>
<rect x="299.42" y="353.11" width="149.02" height="2.82" fill="#dbdbdb"/>
<rect x="299.42" y="358.77" width="121.65" height="2.82" fill="#dbdbdb"/>
<rect x="299.42" y="364.43" width="80.74" height="2.82" fill="#dbdbdb"/>
<rect x="299.42" y="370.1" width="121.65" height="2.82" fill="#dbdbdb"/>
<rect x="230.26" y="403.92" width="231.67" height="58.23" fill="#ebebeb"/>
<path d="M264.09,453.39a20.38,20.38,0,1,1,.11,0Zm0-37.88a17.53,17.53,0,1,0,17.52,17.55V433a17.55,17.55,0,0,0-17.52-17.47Z" fill="#dbdbdb"/>
<rect x="262.52" y="420.64" width="3.14" height="24.77" transform="translate(-228.84 313.57) rotate(-45)" fill="#dbdbdb"/>
<rect x="251.69" y="431.46" width="24.77" height="3.14" transform="translate(-228.85 313.56) rotate(-45)" fill="#dbdbdb"/>
<rect x="299.42" y="417.51" width="149.02" height="2.82" fill="#dbdbdb"/>
<rect x="299.42" y="428.76" width="149.02" height="2.82" fill="#dbdbdb"/>
<rect x="299.42" y="434.43" width="121.65" height="2.82" fill="#dbdbdb"/>
<rect x="299.42" y="440.08" width="80.74" height="2.82" fill="#dbdbdb"/>
<rect x="299.42" y="445.74" width="121.65" height="2.82" fill="#dbdbdb"/>
<rect x="230.26" y="479.56" width="231.67" height="58.23" fill="#ebebeb"/>
<path d="M264.09,529a20.41,20.41,0,1,1,.05,0Zm0-37.88a17.54,17.54,0,1,0,17.52,17.55v0a17.55,17.55,0,0,0-17.52-17.53Z" fill="#dbdbdb"/>
<rect x="262.53" y="496.26" width="3.14" height="24.77" transform="translate(-282.31 335.73) rotate(-45)" fill="#dbdbdb"/>
<rect x="251.72" y="507.12" width="24.77" height="3.14" transform="translate(-282.35 335.74) rotate(-45)" fill="#dbdbdb"/>
<rect x="299.42" y="493.15" width="149.02" height="2.82" fill="#dbdbdb"/>
<rect x="299.42" y="504.4" width="149.02" height="2.82" fill="#dbdbdb"/>
<rect x="299.42" y="510.07" width="121.65" height="2.82" fill="#dbdbdb"/>
<rect x="299.42" y="515.73" width="80.74" height="2.82" fill="#dbdbdb"/>
<rect x="299.42" y="521.38" width="121.65" height="2.82" fill="#dbdbdb"/>
<rect x="222.66" y="251.5" width="246.86" height="62.05" fill="#4a148c" data-primary="true"/>
<path d="M474.92,319.21H217.27V245.83H474.92Zm-256.11-1.54H473.38v-70.3H218.81Z" fill="#4a148c" data-primary="true"/>
<polygon points="255.71 293.73 247.25 285.19 250.1 282.37 255.03 287.38 265.28 271.31 268.63 273.46 255.71 293.73" fill="#fff"/>
<path d="M258.71,304.2a21.69,21.69,0,1,1,21.69-21.69h0A21.71,21.71,0,0,1,258.71,304.2Zm0-40.36a18.69,18.69,0,1,0,18.68,18.69v0A18.68,18.68,0,0,0,258.71,263.84Z" fill="#fff"/>
<rect x="296.36" y="265.96" width="158.81" height="3" fill="#fff"/>
<rect x="296.36" y="277.96" width="158.81" height="3" fill="#fff"/>
<rect x="296.36" y="283.99" width="129.64" height="3" fill="#fff"/>
<rect x="296.36" y="290.02" width="86.03" height="3" fill="#fff"/>
<rect x="296.36" y="296.06" width="129.64" height="3" fill="#fff"/>
<path d="M328.51,597.22a3.82,3.82,0,1,1-3.83-3.8h0A3.81,3.81,0,0,1,328.51,597.22Z" fill="#dbdbdb"/>
<circle cx="346.09" cy="597.22" r="6.25" fill="#dbdbdb"/>
<path d="M371.29,597.22a3.82,3.82,0,1,1-3.83-3.8h0A3.82,3.82,0,0,1,371.29,597.22Z" fill="#dbdbdb"/>
<path d="M565.66,199c6.23,14.17,13.23,31.15,21,43.3a5.15,5.15,0,0,0-2.43-.8c-1.79,0-2,.58-1.67.41,3-1.95,5.31-5.44,7.78-8.92A226.31,226.31,0,0,0,602.22,213a4.71,4.71,0,0,1,8.62,3.72,180.57,180.57,0,0,1-9.73,22.66c-3.89,7.64-12.21,21.83-23,15.07-5.53-4.2-8.63-10.32-12.15-15.57-6.39-10.46-12.11-21.07-17.64-32-5.44-11.68,11.68-19.74,17.21-7.94Z" fill="#f9b499"/>
<path d="M560.15,192.56c8.48.53,22.68,27.26,22.68,27.26l-26,19.27s-4.64-39.44-4.64-39.5S560.15,192.56,560.15,192.56Z" fill="#4a148c" data-primary="true"/>
<path d="M582.87,219.86l-13,9.59-9,6.64-4.09,3s-2.81-23.83-4-34.46c-.37-3.06-.61-5-.61-5s8-7.07,8-7.07c7,.43,17.93,18.81,21.51,25.17C582.44,219.06,582.87,219.86,582.87,219.86Z" fill="#fff" opacity="0.7" style="isolation:isolate"/>
<polygon points="582.81 217.03 586.47 221.2 562.72 239.15 558.63 232.26 582.81 217.03" fill="#263238"/>
<path d="M586.51,211.35a1.28,1.28,0,0,0,.9,1.58,1.08,1.08,0,0,0,.19,0l14.33,1.95a1.65,1.65,0,0,0,1.81-1.23l7.08-27.8a1.47,1.47,0,0,0-1-1.82h0l-14.33-2a2,2,0,0,0-1.83,1.43Z" fill="#3f4347"/>
<path d="M595.21,183.56l-7.09,28.08a1.1,1.1,0,0,0,.57,1.43,1.18,1.18,0,0,0,.37.09l12.15,1.65c.81.12,2.35-.13,2.57-.91l7.16-28.19c.22-.8-1.09-1.62-2-1.74l-12.14-1.67A1.48,1.48,0,0,0,595.21,183.56Z" fill="#fff" opacity="0.2" style="isolation:isolate"/>
<path d="M611.23,215.81l-1.79-16.16L599,211.83s-2.26,10.44,7.22,9.74Z" fill="#f9b499"/>
<polygon points="599.24 196.61 595.77 208.49 598.95 211.83 609.44 199.65 599.24 196.61" fill="#f9b499"/>
<path d="M575.14,229.79l-12.33,9.36-1.81-3-4.09,3s-2.8-23.83-4-34.46C555.14,206.58,572.9,209.26,575.14,229.79Z" opacity="0.1" style="isolation:isolate"/>
<path d="M504,486.55l5.21,10s4.48-2.38,11.59-6.27c2-1.11,4.3-2.34,6.71-3.7,6.74-3.7,14.82-8.2,23.37-13l5.59-3.21c29.61-17,53.89-33.23,53.89-42.13,0-14.91-10.81-43.28-26.07-71.67-10.2-19-18.69-34.23-18.69-34.23l-36.26,22.2s12.35,16.51,25,34.69c14.76,21.21,29.93,44.65,26.46,47-2.65,1.78-16.14,12.33-31.05,24.13l-2.71,2.12c-8,6.37-16.35,13-23.52,18.65l-5.84,4.58Z" fill="#f9b499"/>
<path d="M529.35,344.48s12.34,16.51,25,34.69l29.89-22.66c-10.2-19-18.69-34.23-18.69-34.23Z" fill="#f7a48b"/>
<path d="M517.74,475.63l3.08,14.62c8.91-4.87,22-12.07,35.65-19.94-2.32-7.05-5-15-6.72-20C538.61,459.06,526.66,468.56,517.74,475.63Z" fill="#f7a48b"/>
<path d="M488,362.92l7,21.3,1.42,4.38L507.09,421l1.21,3.72,7.05,21.42,8.17,24.92,3.78,11.53c0,1.3.14,2.62.23,3.89,3.59,55.06,32.27,127,32.27,127L570,610.72c-3.64-43.24-11.41-93.64-19.16-137.26-1.29-7.24-2.55-14.31-3.9-21.12-.72-3.89-1.42-7.57-2.1-11.21-1.48-7.79-2.88-15.07-4.26-21.89-.64-3.23-1.27-6.33-1.85-9.34-1.5-7.44-2.86-14.06-4.07-19.75s-2.16-10.37-2.94-14C530.63,370.94,530,368,530,368Z" fill="#f9b499"/>
<path d="M516.36,475.86c1.32,0,.52,16.35.52,16.35s-10.06,10.21-12.2,20-8.08,4.42-8.26-6.48-.29-19.22-.41-27S502.57,475.74,516.36,475.86Z" fill="#2f2e41" data-secondary="true"/>
<path d="M557,608.93c0-1.32,16.36-.29,16.36-.29s10,10.22,19.8,12.52,4.3,8.14-6.6,8.14H559.46C551.72,629.3,556.54,622.7,557,608.93Z" fill="#2f2e41" data-secondary="true"/>
<path d="M545.29,374.72l2.38,2.22L582.91,353l-4.52-10.87a35.49,35.49,0,0,1-1.66,11.3C574.77,358,551.42,371.25,545.29,374.72Z" fill="#fff" opacity="0.7" style="isolation:isolate"/>
<path d="M488,362.92l7,21.3c19.26,4.57,31.72,6,39.74,6-1.17-5.66-2.16-10.37-2.94-14-1.13-5.23-1.75-8.15-1.75-8.15Z" fill="#f7a48b"/>
<path d="M582.81,353.05,547.55,377l-2.26-2.21-8-7.56v18.91l-48.67-8.73c-7.38-32.67-6.45-56.87-3.26-73.49a90.31,90.31,0,0,1,7.89-24.13h0l.62-6.17,65.85,6.84.64,4.3L563.53,306l14.82,36.21Z" fill="#2f2e41" data-secondary="true"/>
<path d="M537.19,367.18v-21s9.41,15.74,8,28.57Z" opacity="0.2" style="isolation:isolate"/>
<polygon points="544.65 375.72 582.26 348.42 585.45 353.66 547.59 380.17 544.65 375.72" fill="#4a148c" data-primary="true"/>
<polygon points="487.52 374.08 539.23 383.21 539.23 388.29 489.08 380.17 487.52 374.08" fill="#4a148c" data-primary="true"/>
<path d="M507.13,281.53s-4.85,17.84-21.84,22.34a89.94,89.94,0,0,1,7.88-24.13h0Z" opacity="0.2" style="isolation:isolate"/>
<path d="M563.53,306c-6.29-6.07-8.1-21.28-8.1-21.28h4.93Z" opacity="0.2" style="isolation:isolate"/>
<path d="M539.24,283.6a2.07,2.07,0,1,1-2.06-2.06A2.07,2.07,0,0,1,539.24,283.6Z" opacity="0.2" style="isolation:isolate"/>
<path d="M494.55,275.89c-15.22-3.47-.19-3.25-5.14-72a30.76,30.76,0,0,1,.82-10.38A11.82,11.82,0,0,1,503,185.06c2.65.3,5,.57,5.53.59,1.42,0,2.88.1,4.35.19a207,207,0,0,1,29.57,3.35c2.41.49,4.89,1.07,7.3,1.64.78.19,9.74,1.57,10.44,1.77,0,0,10.24,15.91,9.3,27.43-.52,6.43-2.7,11.16-2.88,26.58-.39,35,6.93,34-8.27,35Z" fill="#4a148c" data-primary="true"/>
<path d="M526.74,233.23s-13.52,14.66-36.31.9c0-6.62,0-14.35-.55-23.37a128.88,128.88,0,0,1,27.26-6.5Z" opacity="0.1" style="isolation:isolate"/>
<path d="M555.94,202.53l14.19-8.08,5,13.37S566,214.87,557.87,210Z" fill="#f9b499"/>
<polygon points="581.76 194.14 583.08 205 575.14 207.86 570.13 194.49 581.76 194.14" fill="#f9b499"/>
<path d="M509.12,195.66a159.53,159.53,0,0,0,17.69,42.83l.41.68a5.9,5.9,0,0,0-1.55-1.56,5.58,5.58,0,0,0-4.95-.87c6.11-3.22,10.94-9,16-13.91,6.06-6.28,12.13-12.86,18.11-19.46a4.73,4.73,0,0,1,7.57,5.52,202.33,202.33,0,0,1-23.79,33.92,38.36,38.36,0,0,1-11.56,9.4,11.23,11.23,0,0,1-14.59-4.3,129.16,129.16,0,0,1-22-49c-1.94-12.52,16-15.85,18.64-3.43Z" fill="#f9b499"/>
<path d="M501.45,185c-10.32-1.23-16.63,10.78-13.38,38.37h32.26S518.42,187,501.45,185Z" fill="#4a148c" data-primary="true"/>
<path d="M501.45,185c-10.32-1.23-16.63,10.78-13.38,38.37h32.26S518.42,187,501.45,185Z" fill="#fff" opacity="0.7" style="isolation:isolate"/>
<polygon points="486.44 217.03 521.42 221.2 521.54 225.91 487.21 225.91 486.44 217.03" fill="#2f2e41" data-secondary="true"/>
<path d="M527.55,106.27s7.42-5.35,20-1.25,25.56,17.62,19.82,37-5,31.73-5,31.73S519.2,166.61,510,158.18,502.24,101.29,527.55,106.27Z" fill="#2f2e41" data-secondary="true"/>
<path d="M518.66,152.73c1.5,9.73,2.7,27.6-4.21,33.27a266.39,266.39,0,0,0,27,13.63c6.44-7.32,2.6-10.32,2.6-10.32-10.51-3.76-9.94-11.68-7.78-18.91Z" fill="#f9b499"/>
<path d="M525.82,160l10.4,10.45a30.86,30.86,0,0,0-1.11,5.2c-4-1-9.43-6.17-9.74-10.49A14.25,14.25,0,0,1,525.82,160Z" fill="#f7a48b"/>
<path d="M520.76,127.78c-3.12,15.42-4.77,21.89.62,32.07,8.1,15.34,27.26,16.73,34.77,2.79,6.8-12.56,10.77-35.69-2.08-46.42a20.17,20.17,0,0,0-33.31,11.56Z" fill="#f9b499"/>
<path d="M524.34,139.14s11.37-7,12.75-24.19c0,0,19-.6,25.63,16.2,0,0-2.38-24.16-29.44-25.17s-19.61,28.74-17.52,31.83S524.34,139.14,524.34,139.14Z" fill="#2f2e41" data-secondary="true"/>
<path d="M512.56,138.67a12.58,12.58,0,0,0,5.59,7.79c3.68,2.18,6.54-1.25,6.37-5.63-.14-3.89-2.22-9.85-6.33-10.22S511.59,134.54,512.56,138.67Z" fill="#f9b499"/>
<path d="M159.05,520c11.07-22.68,30.45-34.45,52.33-27.91s25.22,36.91,8.93,44.6-32.62-14.76-41.24-19.38S159.05,520,159.05,520Z" fill="#4a148c" data-primary="true"/>
<path d="M148.32,580.54c0-2.73.17-5.49.26-8.23q.3-8.22.59-16.43c.3-10,1.45-19.85,5.53-29.1a45.08,45.08,0,0,1,17.57-20.25,36.89,36.89,0,0,1,9.23-4,21.66,21.66,0,0,1,10.78-5.92,44.29,44.29,0,0,1,15.36-.38c.2,0,.18.31,0,.28a36.78,36.78,0,0,0-14.54,1.05,32.17,32.17,0,0,0-5.85,2.26,26.6,26.6,0,0,0-3.38,2.17,31.26,31.26,0,0,1,13.34.12,28.75,28.75,0,0,1,4.62,1.53,13.2,13.2,0,0,1,3.65-.31,22.19,22.19,0,0,1,4.73.66,35.57,35.57,0,0,1,9,3.93.16.16,0,0,1-.14.26,33.62,33.62,0,0,0-8.72-3.32,31.37,31.37,0,0,0-4.52-.66c-.84,0-1.67,0-2.51,0a29,29,0,0,1,14.13,14.08c0,.17-.18.31-.25.14a26.58,26.58,0,0,0-18-14.43c-.49-.12-1-.19-1.46-.28.17.7.14,1.52.24,2.2.14,1.12.33,2.22.54,3.32a59.31,59.31,0,0,0,1.75,6.66,53.94,53.94,0,0,0,2.65,6.45,30.12,30.12,0,0,0,3.7,6.23.16.16,0,0,1,0,.22.16.16,0,0,1-.22,0,.16.16,0,0,1-.06-.08c-1.31-2-2.82-3.94-4-6.08a44.08,44.08,0,0,1-4.9-13.17c-.24-1.24-.43-2.46-.57-3.72a7.73,7.73,0,0,1-.14-2.25,30.16,30.16,0,0,0-7.77-.16c1,5.43,2,11.1,5.06,15.81.11.16-.17.3-.26.14a66,66,0,0,1-3.75-7.76,30.48,30.48,0,0,1-1.87-8.1,36.06,36.06,0,0,0-12.82,4.29,42.33,42.33,0,0,0-17.07,18.68,70.34,70.34,0,0,0-6.34,26.78c-.73,11.64-.87,23.34-2,34.89,0,.77-1.27,1-1.43.15A41.37,41.37,0,0,1,148.32,580.54Z" fill="#222831"/>
<path d="M173.89,504.63a12.86,12.86,0,0,1,2.51-2.32c.91-.75,1.83-1.48,2.81-2.14a20.91,20.91,0,0,1,6.3-2.92c.17,0,.24.25,0,.28a16.62,16.62,0,0,0-6.21,3.05c-.93.68-1.75,1.42-2.69,2.17a16.32,16.32,0,0,1-2.53,2.16C174,505.07,173.89,504.87,173.89,504.63Z" fill="#222831"/>
<path d="M209.27,513a65.08,65.08,0,0,1,5.07,6.73,40.51,40.51,0,0,1,3.79,7.49s0,.12-.14,0a88.4,88.4,0,0,0-8.93-14.06C208.93,513,209.14,512.81,209.27,513Z" fill="#222831"/>
<path d="M185.44,510.7a16.08,16.08,0,0,0,1.25,4.12,25.35,25.35,0,0,0,2.11,3.64c0,.09,0,.16-.14.11a15,15,0,0,1-3.48-7.8A.13.13,0,1,1,185.44,510.7Z" fill="#222831"/>
<path d="M149.87,520.5s-15.7-19.71-45.95-12.71c-28.78,6.63-42.05,59.39-13,65.69s24-42.49,34.53-50.78C133.26,516.61,144.43,517.92,149.87,520.5Z" fill="#4a148c" data-primary="true"/>
<path d="M80.53,536.59a59,59,0,0,1,6.25-4.78,28.07,28.07,0,0,1,6.64-3.32,40.32,40.32,0,0,1,4-5.07,38.61,38.61,0,0,1,9.15-7.29h-.9a43.06,43.06,0,0,0-4.82,0,26.74,26.74,0,0,0-9.33,2.32c-.17,0-.3-.2-.12-.27a42.28,42.28,0,0,1,9.28-2.8,25,25,0,0,1,4.72-.41c.86,0,1.71,0,2.55.14h.49a41.67,41.67,0,0,1,8.72-3.21l-.84-.22a42.23,42.23,0,0,0-4.48-.73,35.76,35.76,0,0,0-9.07.13c-.17,0-.23-.26,0-.27a57.23,57.23,0,0,1,9.16-.39,39.09,39.09,0,0,1,7.62,1,37.79,37.79,0,0,1,5.51-.63c10.47-.46,22.07,3.49,28.56,12.21s7.78,20.27,8.91,30.73a232.75,232.75,0,0,1,1.17,44c0,.87-1.29.71-1.31-.11-.4-12.44-.83-24.89-2-37.27-.56-5.74-1.17-11.52-2.13-17.2a50.37,50.37,0,0,0-4.19-14.1,25.82,25.82,0,0,0-10.22-11,34.35,34.35,0,0,0-14.46-4.45,38.71,38.71,0,0,0-13.59,1.28,9.19,9.19,0,0,1,.09,2.67,17,17,0,0,1-.66,3.31,17.54,17.54,0,0,1-1.28,3c-.55,1-1.25,2-1.88,3-.1.16-.35,0-.24-.15a14,14,0,0,0,2.35-6,28.58,28.58,0,0,0,.37-3.07v-2.35a40.19,40.19,0,0,0-13.22,7c-.74.59-1.44,1.22-2.13,1.86a14.61,14.61,0,0,1,2.56,3.14,32.73,32.73,0,0,1,2.69,4.8,40.86,40.86,0,0,1,2.81,10.47.15.15,0,0,1-.3,0,30.21,30.21,0,0,0-3.49-10,36.3,36.3,0,0,0-2.69-4.43c-.5-.74-1-1.45-1.58-2.15-.3-.38-.63-.77-.91-1.17a41.85,41.85,0,0,0-8.58,12.09h0a20.37,20.37,0,0,1,3.49,5.09A48.3,48.3,0,0,1,96,548a100.13,100.13,0,0,1,3.79,12.47c0,.17-.25.23-.28,0a51.82,51.82,0,0,0-4.29-12.21c-.91-1.9-1.87-3.77-2.86-5.62a47.23,47.23,0,0,1-2.85-5.23,38.54,38.54,0,0,0-3.49,14,.15.15,0,0,1-.2.1.13.13,0,0,1-.09-.1,48.9,48.9,0,0,1,6.8-21.5A60.27,60.27,0,0,0,87,532.33a31.79,31.79,0,0,0-6.3,4.43C80.58,536.94,80.39,536.71,80.53,536.59Z" fill="#222831"/>
<path d="M102.74,537.77c.91,3,2.06,5.9,2.88,8.92a34.27,34.27,0,0,1,1.32,8.89m-.14,0a86.08,86.08,0,0,0-4.34-17.81.14.14,0,0,1,.28,0h0Z" fill="#222831"/>
<path d="M83.57,530.29a16.65,16.65,0,0,1,4-2.86,28.42,28.42,0,0,1,4.64-1.64c.17,0,.23.24,0,.28a18.75,18.75,0,0,0-4.47,1.85,30.44,30.44,0,0,0-4.11,2.53.11.11,0,0,1-.09-.13Z" fill="#222831"/>
<path d="M135,494.16s-2.93-35.39-29.22-46.87c-22-9.57-34.56,15.13-19,30.25C99.28,489.77,119.45,484.24,135,494.16Z" fill="#4a148c" data-primary="true"/>
<path d="M91.59,454.15a110.8,110.8,0,0,1,11.71,5.55,89.88,89.88,0,0,1,9.08,6c-.43-.89-.82-1.83-1.25-2.7-.7-1.38-1.43-2.71-2.23-4a37.92,37.92,0,0,0-5.81-7.35c-.14-.12.08-.33.21-.19a57.73,57.73,0,0,1,6,7.1,44.86,44.86,0,0,1,2.51,4,16.53,16.53,0,0,1,1.75,4.08l.29.21a87.46,87.46,0,0,1,12.56,12.3,3.72,3.72,0,0,0-.23-1c-.48-1.75-1-3.49-1.6-5.15A43.56,43.56,0,0,0,120,462.77c-.1-.16.16-.3.25-.14a81.75,81.75,0,0,1,5.51,10.06,38.68,38.68,0,0,1,1.75,5.23,21.14,21.14,0,0,1,.85,3.49c1.15,1.45,2.29,2.93,3.35,4.43,11.3,16.1,17,35.55,18.33,55a169.16,169.16,0,0,1,.3,17.44,112.16,112.16,0,0,1-1.55,17.45c0,.36-.65.26-.63-.11.12-5.11.66-10.2.75-15.33a151.58,151.58,0,0,0-.49-15.37,142.83,142.83,0,0,0-5.74-30.12,107.42,107.42,0,0,0-13.4-28.33c-1.09-.23-2.19-.52-3.29-.8s-2.62-.68-3.93-1.05a38.47,38.47,0,0,1-7.27-2.69c-.18-.08,0-.34.16-.24a23.58,23.58,0,0,0,7.43,2.56c2.06.42,4.2.68,6.26,1.16a99.72,99.72,0,0,0-6.12-8.05,46,46,0,0,1-15-1.11,62.61,62.61,0,0,1-7.68-2.39c-2.63-1-5.12-2.32-7.72-3.49-.19,0,0-.38.12-.26a43.78,43.78,0,0,0,15.18,4.95,95,95,0,0,0,14.19,1.19c-1.86-2.15-3.8-4.24-5.86-6.21-7-6.58-15.12-12.63-24.23-15.7C91.33,454.38,91.42,454,91.59,454.15Z" fill="#222831"/>
<path d="M113,454.25a43.18,43.18,0,0,1,3.32,4.73,26.24,26.24,0,0,1,2.23,5.53s-.09.11-.11,0c-.87-1.74-1.62-3.49-2.51-5.23a27,27,0,0,0-3.14-4.78C112.68,454.32,112.84,454,113,454.25Z" fill="#222831"/>
<path d="M88.54,466.05a26.81,26.81,0,0,0,5.39,2.25,47.3,47.3,0,0,0,5.49,1.48m0,.16a26.53,26.53,0,0,1-5.7-1.26,43,43,0,0,1-5.3-2.43c-.21,0,0-.29.12-.2Z" fill="#222831"/>
<path d="M155.43,487.81c.16,1.52,4-12.85,26.17-25.62,20.22-11.6,44.34-41.78,24.53-60.82C190.18,386,148,419.51,155.43,487.81Z" fill="#4a148c" data-primary="true"/>
<path d="M140.1,570.29a391.93,391.93,0,0,1,3.49-44.76,200.83,200.83,0,0,1,9.4-40.12c1.75-4.68,3.49-9.28,5.6-13.82a32.62,32.62,0,0,1,0-5.23c.11-2.27.32-4.54.53-6.8s.43-4.52.71-6.77.73-4.5.84-6.75c0-.21.33-.16.28,0a49.17,49.17,0,0,0-.81,7.17q-.19,3.33-.2,6.59v9.05q3.13-6.64,6.76-13c-1.5-9.23.46-18.87,2.34-27.91,0-.17.31,0,.28.09a79.82,79.82,0,0,0-1.47,14.3c-.08,3.79,0,7.59.11,11.38.52-.91,1.06-1.75,1.6-2.73,2.9-4.71,6-9.33,9.25-13.81a21.68,21.68,0,0,1,.23-6.58,50.31,50.31,0,0,1,1.6-7.18c.72-2.36,1.54-4.68,2.46-7s2.25-4.55,3.19-7c0-.19.37,0,.26.12a33.91,33.91,0,0,0-2.79,7,59.82,59.82,0,0,0-1.74,7c-.47,2.35-.87,4.69-1.19,7.06-.22,1.57-.36,3.2-.63,4.76a170.1,170.1,0,0,1,15.58-18.12c.14-.14.33,0,.21.21a205.6,205.6,0,0,0-22.68,30.77c-.24.42-.47.84-.71,1.24,1.24-.77,2.63-1.38,3.78-2l6.51-3.57,6.3-3.49c1.08-.61,2.14-1.24,3.24-1.75a23.49,23.49,0,0,0,3.77-2.09.15.15,0,1,1,.17.25c-2.14,1.16-4,2.91-6.1,4.23s-4.2,2.62-6.35,3.82c-4,2.2-8.27,3.79-12.21,6.07q-4.07,7.1-7.48,14.54c2.35-1.52,4.78-3,7.22-4.33,1.59-.89,3.16-1.75,4.76-2.6a24.28,24.28,0,0,0,4.5-2.72.14.14,0,1,1,.19.21h0a42.83,42.83,0,0,1-8.54,5.95c-2.87,1.65-5.74,3.28-8.73,4.72-2.37,5.24-4.53,10.47-6.43,15.95-9.37,26.51-12.82,54.68-14.46,82.64-.49,8.34-.75,16.68-.84,25s.33,16.65.31,25a.22.22,0,0,1-.43,0c-1-7.39-1.19-14.91-1.5-22.36S139.94,577.89,140.1,570.29Z" fill="#222831"/>
<path d="M180.54,450.19a107.75,107.75,0,0,0,11.84-6.12,123.67,123.67,0,0,0,11.22-7.14s.14,0,0,.11a95.61,95.61,0,0,1-10.78,7.55,109.28,109.28,0,0,1-12.21,5.84C180.52,450.56,180.38,450.26,180.54,450.19Z" fill="#222831"/>
<path d="M174.1,420.2c.33-1.29.73-2.56,1.17-3.83a.09.09,0,0,1,0-.13h0c.28-.72.57-1.43.87-2.15a.28.28,0,0,1,.1-.26l.16-.4h0l-.21.75a3,3,0,0,1-.12.4,104.6,104.6,0,0,0-3.28,15.05c0,.18-.28.18-.26,0A50.23,50.23,0,0,1,174.1,420.2Z" fill="#222831"/>
<polygon points="116.59 575.66 118.18 594.48 123.04 651.91 175.11 651.91 179.98 594.48 181.56 575.66 116.59 575.66" fill="#2f2e41" data-secondary="true"/>
<polygon points="116.59 575.66 118.18 594.48 179.98 594.48 181.56 575.66 116.59 575.66" opacity="0.2"/>
<rect x="111.48" y="568.11" width="75.2" height="18.05" fill="#2f2e41" data-secondary="true"/>
<circle cx="123.71" cy="97.23" r="65.49" transform="translate(-32.52 115.95) rotate(-45)" fill="#2f2e41" data-secondary="true"/>
<circle cx="123.69" cy="97.19" r="59.92" fill="#fff" stroke="#263238" stroke-linejoin="round" stroke-width="1"/>
<path d="M129.28,97.22a5.58,5.58,0,1,0-5.58,5.57,5.58,5.58,0,0,0,5.58-5.57Z" fill="#2f2e41" data-secondary="true"/>
<line x1="128.27" y1="101.36" x2="136.99" y2="112.38" fill="none" stroke="#2f2e41" stroke-miterlimit="10"/>
<line x1="128.27" y1="93.11" x2="153.05" y2="57.75" fill="none" stroke="#2f2e41" stroke-miterlimit="10"/>
</svg>